<?xml version="1.0" encoding="UTF-8"?><svg id="Layer_2" xmlns="http://www.w3.org/2000/svg" viewBox="0 0 713.15 142.19"><defs><style>.cls-1,.cls-2{fill:#fff;}.cls-3{fill:#d6ad4a;}.cls-2{fill-rule:evenodd;}</style></defs><g id="Layer_1-2"><path class="cls-1" d="m155.75,42.56c.15-.89.59-1.33,1.33-1.33h2.67c.89,0,1.19.44,1.19,1.33v63.31c0,.89-.44,1.19-1.33,1.19h-2.52c-.89,0-1.33-.44-1.33-1.19l-.89-14.38c-5.04,10.53-15.42,17.05-29.06,17.05-20.16,0-33.66-13.94-33.66-34.4s13.49-34.25,33.66-34.25c13.64,0,24.02,6.38,29.06,17.05l.89-14.38Zm-29.51,59.9c16.9,0,28.32-11.27,28.62-28.32-.15-16.9-11.57-28.17-28.62-28.17s-28.02,11.27-28.02,28.17,11.27,28.32,28.02,28.32Z"/><path class="cls-1" d="m222.16,41.37c1.48,0,1.78.59.59,1.63l-32.47,28.77,37.22,33.8c1.04.89.74,1.48-.74,1.48h-5.78c-.74,0-1.48-.3-1.93-.74l-35.59-32.62v32.18c0,.74-.44,1.19-1.19,1.19h-3.71c-.74,0-1.19-.44-1.19-1.19V1.19c0-.74.44-1.19,1.33-1.19h3.41c.89,0,1.33.45,1.33,1.19v69.24l30.99-28.32c.59-.45,1.19-.74,1.93-.74h5.78Z"/><path class="cls-1" d="m235.35,99.34l1.78-3.11c.15-.29.44-.59.89-.59.15,0,.44.15.74.3,2.67,1.93,9.34,6.52,20.61,6.52s18.53-5.34,18.53-12.16c0-8.01-7.27-10.38-19.57-13.64-15.42-4-21.5-8.16-21.8-18.09-.3-11.12,9.49-18.98,23.87-18.83,10.53,0,16.9,4.3,19.43,6.23.59.3.74,1.04.44,1.78l-1.48,3.11c-.15.44-.44.74-.74.74s-.59-.15-.89-.3c-2.37-1.63-8.01-5.63-17.35-5.63-10.38,0-17.2,4.89-17.2,12.01,0,7.86,6.08,9.79,19.28,13.35,14.23,4,21.8,7.86,22.09,18.53.3,11.12-9.79,18.98-25.06,18.83-12.75,0-20.31-4.89-23.13-7.26-.74-.44-.74-1.04-.44-1.78Z"/><path class="cls-1" d="m323.42,102.46c4.15,0,7.26-2.82,8.75-4.15.3-.3.59-.44.74-.44.44,0,.59.15.89.44l2.37,3.26c.44.59.3,1.33-.44,1.78-2.08,1.78-6.23,5.04-12.9,5.04-10.53,0-15.71-9.04-15.57-24.02v-37.36h-13.05c-.89,0-1.33-.44-1.33-1.33v-3.11c0-.74.44-1.19,1.33-1.19h13.05l.15-22.98c0-.89.3-1.33,1.19-1.33h3.56c.89,0,1.34.44,1.34,1.33l-.15,22.98h18.83c.74,0,1.33.44,1.33,1.19v3.11c0,.89-.59,1.33-1.33,1.33h-18.83v36.47c.15,15.12,4.3,18.83,10.08,18.98Z"/><path class="cls-1" d="m408.22,42.56c.15-.89.59-1.33,1.34-1.33h2.67c.89,0,1.19.44,1.19,1.33v63.31c0,.89-.44,1.19-1.33,1.19h-2.52c-.89,0-1.34-.44-1.34-1.19l-.89-14.38c-5.04,10.53-15.42,17.05-29.06,17.05-20.16,0-33.66-13.94-33.66-34.4s13.49-34.25,33.66-34.25c13.64,0,24.02,6.38,29.06,17.05l.89-14.38Zm-29.5,59.9c16.9,0,28.32-11.27,28.62-28.32-.15-16.9-11.56-28.17-28.62-28.17s-28.02,11.27-28.02,28.17,11.27,28.32,28.02,28.32Z"/><path class="cls-1" d="m492.02,57.38l1.04-14.83c.15-.74.59-1.19,1.33-1.19h2.52c.74,0,1.19.44,1.19,1.19l.15,65.39c.15,20.61-14.09,34.25-33.36,34.25-11.86-.15-20.91-3.86-27.28-7.41-.59-.44-.74-1.04-.44-1.78l1.93-3.41c.3-.3.59-.59.89-.59.15,0,.44.15.74.3,6.23,3.56,12.46,6.38,24.17,6.82,16.01,0,27.13-10.68,27.28-27.43v-17.79c-5.04,10.97-15.42,17.65-29.36,17.65-20.16,0-33.66-13.94-33.66-34.4s13.49-34.25,33.66-34.25c13.94,0,24.32,6.67,29.21,17.5Zm-28.76,45.07c17.05.15,28.76-11.27,28.76-28.32s-11.86-28.17-28.76-28.17-28.02,11.42-28.02,28.17,11.27,28.32,28.02,28.32Z"/><path class="cls-1" d="m549.43,102.46c10.38,0,17.64-3.86,21.94-8.6.44-.44.89-.59,1.33-.59.15,0,.45,0,.74.3l2.82,2.67c.59.59.44,1.19-.15,1.78-6.08,6.67-15.42,10.53-26.69,10.53-21.35,0-35.74-13.94-35.74-34.4s13.79-34.25,34.1-34.25,34.25,13.79,34.25,35.59c0,.89-.44,1.48-1.48,1.48h-60.64c1.19,15.27,12.75,25.5,29.51,25.5Zm26.39-31.14c-1.19-15.27-12.01-25.35-28.02-25.35s-26.69,10.08-27.88,25.35h55.9Z"/><path class="cls-3" d="m81.58,59.06c0-.15,0-1.45-1.33-1.45-1.2,0-1.3.94-1.35,1.45-.11,1.14-.05,11.05-.03,16.04.02,8.47-2.61,16.78-7.76,23.51-5.79,7.56-13.35,12.42-22.69,14.29-18.23,3.65-35.99-5.95-42.98-23.11-1.83-4.49-2.71-9.31-2.72-14.16,0-2.12-.04-6.77-.02-7.56.04-1.3.09-7.67-.04-8.96-.05-.48-.05-1.52-1.25-1.52s-1.37.99-1.37,1.46C.01,67.23,0,67.92,0,76.11c0,3.49.5,6.93,1.42,10.29,4.61,16.85,19.56,28.93,37.06,29.94.76.04.92.31.91,1-.02,5.33-.03,10.67,0,16,0,.89-.25,1.17-1.15,1.16-5.15-.05-7.86-.04-13.01-.04-.37,0-.76,0-1.1.1-.65.19-.95.68-.91,1.34.04.66.4,1.11,1.07,1.21.4.06.8.05,1.21.05,5.89,0,9.35,0,15.24,0h0c6.14,0,9.85,0,15.99,0,1.08,0,1.64-.49,1.63-1.35,0-.83-.54-1.27-1.58-1.32-.19,0-.37,0-.56,0-5.15,0-7.86-.01-13.01.01-1,0-.93-1.2-.93-1.2v-15.71s-.23-1.17.7-1.23c9.98-.61,18.67-4.29,25.9-11.2,7.85-7.51,12.22-16.76,12.58-27.64.29-8.71.1-9.73.12-18.44Z"/><path class="cls-2" d="m41.05,37.24c-11.65,0-21.92,6.3-27.94,15.86V11.53c0-1.57-1.27-2.84-2.84-2.84h0c-1.57,0-2.84,1.27-2.84,2.84v61.31l.04-.03s0,.05,0,.08c0,19.69,15.04,35.65,33.59,35.65s33.59-15.96,33.59-35.65-15.04-35.65-33.59-35.65Zm0,65.5c-15.53,0-28.13-13.36-28.13-29.85s12.59-29.85,28.13-29.85c11.39,0,21.19,7.19,25.61,17.52-7.08,0-23.2,0-25.22,0-.71,0-1.08.52-1.07,1.43,0,.87.35,1.34,1.04,1.39.12,0,.24,0,.37,0,.82,0,18.88,0,25.93,0,.86,2.72,1.36,5.62,1.45,8.63-4.43,0-25.39,0-27.71,0-.71,0-1.08.52-1.07,1.43,0,.87.35,1.34,1.04,1.39.12,0,.24,0,.37,0,.88,0,21.72,0,27.33,0-.18,2.99-.78,5.87-1.73,8.56-6.64,0-23.84,0-25.94,0-.71,0-1.08.52-1.07,1.43,0,.87.35,1.34,1.04,1.39.12,0,.24,0,.37,0,.77,0,16.63,0,24.44,0-4.61,9.8-14.15,16.53-25.17,16.53Z"/><path class="cls-1" d="m682.1,44.19c.15-.89.59-1.33,1.33-1.33h2.67c.89,0,1.19.44,1.19,1.33v63.31c0,.89-.44,1.19-1.33,1.19h-2.52c-.89,0-1.33-.44-1.33-1.19l-.89-14.38c-5.04,10.53-15.42,17.05-29.06,17.05-20.16,0-33.66-13.94-33.66-34.4s13.49-34.25,33.66-34.25c13.64,0,24.02,6.38,29.06,17.05l.89-14.38Zm-29.51,59.9c16.9,0,28.32-11.27,28.62-28.32-.15-16.9-11.57-28.17-28.62-28.17s-28.02,11.27-28.02,28.17,11.27,28.32,28.02,28.32Z"/><path class="cls-1" d="m711.23,75.32v32.18c0,.74-.44,1.19-1.19,1.19h-3.71c-.74,0-1.19-.44-1.19-1.19v-63.68c0-.74.44-1.19,1.33-1.19h3.41c.89,0,1.33.45,1.33,1.19v28.24"/><circle class="cls-1" cx="708.33" cy="27.31" r="4.82"/><circle class="cls-1" cx="600.54" cy="104.79" r="4.82"/></g></svg>