<?xml version="1.0" encoding="UTF-8"?>
<svg data-name="Layer 1" viewBox="0 0 906.03 203.39" xmlns="http://www.w3.org/2000/svg">
<defs>
<style>.cls-1{fill:#fff;}</style>
</defs>
<title>logo</title>
<path class="cls-1" d="M765.72,72.72c.83-2.54,1.69-4.25,1.9-6,.33-2.8.23-5.65.32-8.49.21-6.88.62-7.19,8-5.73a24.14,24.14,0,0,1,.3,2.78c0,33.83.22,67.65-.07,101.47-.13,14.57-6.3,26.64-17.77,35.82-7.15,5.72-15.2,8.74-24.4,10.14-16.81,2.55-31.95-2-46.86-8.66-3.28-1.46-4.26-4-2.54-7.21s4.23-3.69,7.37-1.87a65.65,65.65,0,0,0,37.27,8.9c19.09-1.14,36.32-14.64,37-36.46.24-7.66.16-15.33.16-23a36.08,36.08,0,0,0-.69-4.6C759.68,139,752.6,145.45,743,149c-11.83,4.43-23.72,4.6-35.88,1.63s-21.49-9.57-28-20.19c-4.21-6.89-7-14.21-7.39-22.44-.63-13.39,0-26.37,8.13-37.89A46.92,46.92,0,0,1,703.8,52.05a58.81,58.81,0,0,1,31.66-1.71C748.3,53.08,758.4,60.23,765.72,72.72Zm.51,28C767,74,746.88,58,722.46,58.66c-27.4.78-42,17.66-41.55,42.23.53,29.24,17.16,42.34,43.37,42.33C749.14,143.2,766.85,127.39,766.23,100.76Z"/>
<path class="cls-1" d="M18,2.27h8.15v66c6.36-4.83,12.19-10.25,18.89-14.17,20.58-12.06,46.79-5.75,61.32,11.1,10.19,11.81,15,25.44,13.33,40.71-2.05,19.12-15.13,38.48-36.5,44.47-28.16,7.9-52.09-6-62.75-31.23a32.25,32.25,0,0,1-2.46-12c-.26-34-.25-68-.31-101.94C17.71,4.41,17.88,3.59,18,2.27Zm88,79.86c-2.67-13.08-23.73-27-38.66-25.45C44,59.1,29.37,73.37,26.53,94.36c-3.24,23.95,10.93,44,35.57,49.22,15.33,3.25,36.54-6,43.51-23.36H100c-9.5,0-19,0-28.5,0-2.84,0-4.71-.57-2.8-4.3,11.48,0,23.13-.15,34.76.08,4.55.09,6.32-2,6.48-6.1.07-1.78,0-3.56,0-5.71-2.11-.09-3.9-.24-5.69-.24-10.5,0-21,.11-31.49-.14-1.67,0-3.3-1.71-4.94-2.63,1.65-.91,3.28-2.58,5-2.62,10.66-.24,21.33-.11,32-.14,1.75,0,3.5-.19,5.35-.3,0-1.8,0-3,0-4.11-.31-7.29-.59-7.55-7.83-7.56H68.28c-1.15-4.68,1.54-4.33,3.9-4.33Z"/>
<path class="cls-1" d="M812.12,105.86c-1.26,14.46,11.71,29.83,25,34.3,10.15,3.41,20.48,3.36,30.68,1.66a33.54,33.54,0,0,0,18.83-9.6c2.79-2.88,5.36-3.08,8.25,0s1,5.5-1.23,7.4c-8.86,7.37-18.95,12-30.6,12.66s-23.51.55-34.31-5.1c-12.47-6.53-21.76-15.89-25.12-30.06-4.18-17.66-3.55-34.62,8.26-49.58,8.62-10.92,20-16.33,33.9-17.91,12.92-1.47,25,.19,36,6.61,10.12,5.88,17.32,14.62,20.36,26.21,1.41,5.38,2.48,10.86,3.58,16.32,1,4.86-.56,6.71-5.58,7-1.16.07-2.33,0-3.5,0H812.12Zm-.07-10.25h83.14c-7.2-30.18-22-39.93-54.29-35.29C825.78,62.5,810.86,78.9,812.06,95.61Z"/>
<path class="cls-1" d="M244.31,71.61c0-4.1,0-8.2,0-12.3,0-1.48-.17-3.37.63-4.35,1.41-1.74,3.49-4.07,5.31-4.09,3,0,3.73,2.72,3.72,5.75-.11,24-.06,48-.06,72q0,7.5,0,15c0,7.1-.11,7.18-8.54,6.31l-1.93-20.38c-10.46,15.51-24.38,22.89-42.55,23s-33.08-5.64-43.44-20.76c-15.36-22.41-11.36-58.28,12.11-74.08C190,44,227.21,45,243,71.8ZM158.2,100.85c.46,24.63,15.48,42.32,42.71,42.24,26.54-.08,42.56-16.84,42.8-42.25.24-26-17.54-42.49-43.64-42.21C175.71,58.89,158.78,74.19,158.2,100.85Z"/>
<path class="cls-1" d="M645.66,150.07h-7.15l-2-19.4c-11.35,15.22-25.59,21.92-43.75,21.93-14.65,0-27.47-4-37.62-14.56a46.28,46.28,0,0,1-13.28-30.19C541,93.26,542.2,79.21,552,67.34c8.44-10.22,19.09-16,32.48-17.61,12.68-1.57,24.64-.2,35.35,6.51,6,3.74,10.77,9.36,16.59,14.57.48-5,.7-10.4,1.66-15.64.31-1.71,2.39-4,4-4.34,2.24-.43,4.15,1.06,4.14,4.17q-.17,46.7-.15,93.41A10.92,10.92,0,0,1,645.66,150.07Zm-9.49-49c.67-27.37-18.84-42.55-42.32-42.39-27.34.18-42.58,16-42.77,41.43-.17,24,11.5,42,41.77,42.95C618.32,143.81,636.38,126.73,636.17,101.05Z"/>
<path class="cls-1" d="M291.64,102.73q0,3.37,0,6.74,0,16.5,0,33c0,8-.88,8.7-9.57,7.36-.09-1.68-.26-3.46-.26-5.24q0-69,0-138c0-3-.92-6.6,4.26-6.62,5,0,5.55,3.13,5.55,6.89q0,39.49,0,79c0,2.07.19,4.15.36,7.73,3.84-3.22,6.71-5.47,9.41-7.91,10.9-9.89,21.73-19.86,32.6-29.78,5-4.58,10.24-5.51,18-2.88L301.75,97.24l56.92,51.48-.79,1.41c-5.63-.19-11,1.7-16.47-3.56-15.75-15.1-32.22-29.43-48.41-44.07Z"/>
<path class="cls-1" d="M410.94,152.32c-11.19.59-21.41-2.45-31-8-3.47-2-5.55-4.21-3.09-8.12,2.31-3.68,4.7-2.28,7.78-.4a49.87,49.87,0,0,0,23.33,6.95c7.86.49,15.25-.19,22.31-3.71,6.55-3.27,10.56-8.2,9.68-15.88-.81-7-5.88-10.69-11.87-12.75-8.94-3.07-18.2-5.2-27.12-8.3-8.69-3-18.1-5.83-21.64-15.64-4.07-11.3-1.81-23.33,8.5-30.15S409.32,47,422,49.56a68.78,68.78,0,0,1,18.7,6.75c3.48,1.84,4.54,4.07,2,7.89s-4.21,1.87-6.79.46C423,57.58,409.75,55.36,396,62.2c-5.34,2.66-9.94,9.56-9.29,14.41C387.57,83,391,87.87,397.23,90c8.64,2.91,17.46,5.29,26.12,8.13,8.45,2.77,17.34,5.31,22.55,13.23,9.19,14,2.46,30.33-12,36.61-7.05,3.07-15.08,3.9-22.66,5.75Z"/>
<path class="cls-1" d="m484.19 60.25c-6.14 0-11.46-0.12-16.76 0-3.38 0.11-4.89-1.46-5.08-4.61-0.23-3.63 2.24-3.95 4.94-3.95 4 0 8-0.14 12 0 3.63 0.16 5.08-1.24 5-5-0.15-9 0-18 0-27 0-3.54 1.34-5.49 5.24-5.57 3.38-0.07 4.84 1 4.78 4.56-0.16 8.83-0.09 17.66-0.1 26.49 0 6 0.4 6.39 6.61 6.42h22.74c1.87 8 1.45 8.52-6 8.52h-22.89a38.57 38.57 0 0 0-0.43 4c0 18.33-0.18 36.66 0.1 55a43 43 0 0 0 2.5 14.54c3.7 9.62 14.72 12.13 23 5.39 3.07-2.51 4.49-3.83 7.46 0.39 2.83 4 1 5.85-1.77 7.75-11.29 7.66-27.15 7.34-34.33-3.23-4.89-7.21-6.52-15.48-6.76-23.76-0.52-18-0.19-36-0.21-54-0.04-1.65-0.04-3.45-0.04-5.94z"/>
<path class="cls-1" d="M134.14,80.46c.6,1.85,1.67,3.7,1.71,5.56.17,7.83.46,15.69-.06,23.48-1.62,24.16-14.14,43.79-39.33,54.53-7.11,3-15,4.21-22.67,5.93-2.33.53-3.51,1.09-3.43,3.72q.26,9.24,0,18.49c-.07,3.06,1.2,4.16,4.14,4.11,6-.1,12-.18,18,.08,1.63.07,3.21,1.4,4.81,2.15l-.53,1.59H40.27l-.83-1.25c1.35-.86,2.66-2.4,4-2.47,5.48-.29,11-.1,16.49-.14,1.78,0,3.57-.19,5.6-.31V171.36c-8.68-2.42-17.3-4-25.23-7.2-17.87-7.28-30.52-19.78-36.76-38.61C-.88,112.09,0,98.44.28,84.74c0-1.28,2-2.51,3.08-3.77.89,1.43,2.49,2.83,2.54,4.28.25,7.49.34,15,.06,22.49C5,131.85,22.64,153.08,42.82,160.13a100.54,100.54,0,0,0,24.36,5.48c22.23,1.89,49.13-14,58.17-34.45,2.79-6.29,3.92-13.54,4.62-20.48.78-7.75.08-15.65.3-23.47.06-2.24,1.07-4.46,1.65-6.69Z"/>
</svg>
